<svg xmlns="http://www.w3.org/2000/svg" xmlns:xlink="http://www.w3.org/1999/xlink" style="isolation:isolate" viewBox="0 0 900 550" width="900pt" height="550pt"><defs><clipPath id="_clipPath_6WDNJLWTmDeHBs75TUID3SNngKKRq1Ax"><path d="M0 0h9e2v550H0z"/></clipPath></defs><g clip-path="url(#_clipPath_6WDNJLWTmDeHBs75TUID3SNngKKRq1Ax)"><g><g><path d="M638.526 441.059 639.374 437.575 640.21 434.091 622.722 429.865 623.503 433.739 621.038 436.83 638.526 441.059z" fill="rgb(255,171,1)"/><path d="M674.239 441.059 673.395 437.575 672.556 434.091 690.045 429.865 689.263 433.739 691.731 436.83 674.239 441.059z" fill="rgb(255,171,1)"/><path d="M650.827 437.639v0C652.501 437.689 653.652 437.647 653.699 437.647L655.651 437.578 654.627 435.919C653.743 434.507 649.091 427.306 643.701 424.435 640.839 422.912 637.859 422.034 635.308 421.953 632.754 421.876 630.936 422.612 630.18 424.019 629.424 425.429 629.822 427.342 631.309 429.417 632.799 431.488 635.194 433.466 638.05 434.989 641.03 436.578 645.333 437.47 650.827 437.639z" fill="rgb(254,193,47)"/><path d="M650.946 438.42v0C652.453 438.038 653.463 437.703 653.503 437.686L655.226 437.115 653.877 435.77C652.71 434.623 646.663 428.832 641.099 427.431 638.15 426.692 635.258 426.605 632.97 427.185 630.675 427.766 629.249 428.949 628.949 430.513 628.651 432.078 629.517 433.837 631.389 435.465 633.27 437.094 635.923 438.398 638.867 439.138 641.947 439.912 646.014 439.671 650.946 438.42z" fill="rgb(254,193,47)"/><path d="M651.093 435.673v0C652.597 435.288 653.611 434.95 653.652 434.939L655.372 434.366 654.021 433.022C652.858 431.875 646.806 426.083 641.243 424.681 638.294 423.941 635.405 423.856 633.118 424.435 630.822 425.019 629.393 426.201 629.093 427.764 628.795 429.328 629.664 431.086 631.533 432.715 633.414 434.343 636.067 435.65 639.016 436.387 642.093 437.163 646.158 436.922 651.093 435.673z" fill="rgb(254,193,47)"/><path d="M648.169 435.634v0C649.521 435.739 650.448 435.747 650.484 435.753L652.059 435.767 651.301 434.393C650.639 433.222 647.164 427.248 642.927 424.734 640.681 423.396 638.31 422.576 636.261 422.419 634.203 422.258 632.713 422.782 632.052 423.887 631.386 424.994 631.635 426.553 632.758 428.278 633.882 430.006 635.734 431.688 637.978 433.022 640.32 434.413 643.754 435.294 648.169 435.634z" fill="rgb(255,171,1)"/><path d="M661.5 437.639v0C659.823 437.689 658.676 437.647 658.626 437.647L656.674 437.578 657.695 435.919C658.581 434.507 663.235 427.306 668.623 424.435 671.49 422.912 674.47 422.034 677.017 421.953 679.573 421.876 681.393 422.612 682.152 424.019 682.902 425.429 682.504 427.342 681.016 429.417 679.527 431.488 677.133 433.466 674.278 434.989 671.298 436.578 666.992 437.47 661.5 437.639z" fill="rgb(254,193,47)"/><path d="M661.381 438.42v0C659.875 438.038 658.859 437.703 658.82 437.686L657.1 437.115 658.451 435.77C659.612 434.623 665.663 428.832 671.226 427.431 674.179 426.692 677.067 426.605 679.355 427.185 681.653 427.766 683.08 428.949 683.379 430.513 683.675 432.078 682.811 433.837 680.936 435.465 679.059 437.094 676.406 438.398 673.459 439.138 670.379 439.912 666.313 439.671 661.381 438.42z" fill="rgb(254,193,47)"/><path d="M661.235 435.673v0C659.728 435.288 658.718 434.95 658.676 434.939L656.956 434.366 658.304 433.022C659.471 431.875 665.519 426.083 671.082 424.681 674.035 423.941 676.923 423.856 679.211 424.435 681.507 425.019 682.936 426.201 683.229 427.764 683.531 429.328 682.666 431.086 680.792 432.715 678.915 434.343 676.259 435.65 673.315 436.387 670.235 437.163 666.167 436.922 661.235 435.673z" fill="rgb(254,193,47)"/><path d="M664.156 435.634v0C662.805 435.739 661.88 435.747 661.841 435.753L660.263 435.767 661.027 434.393C661.686 433.222 665.161 427.248 669.398 424.734 671.645 423.396 674.015 422.576 676.067 422.419 678.125 422.258 679.615 422.782 680.277 423.887 680.939 424.994 680.687 426.553 679.568 428.278 678.443 430.006 676.593 431.688 674.35 433.022 672.007 434.413 668.573 435.294 664.156 435.634z" fill="rgb(255,171,1)"/><path d="M662.334 438.293C662.334 438.785 661.86 439.19 661.276 439.19H650.661C650.074 439.19 649.598 438.785 649.598 438.293L650.661 431.112C650.661 430.618 651.135 430.219 651.722 430.219H660.21C660.798 430.219 661.276 430.618 661.276 431.112L662.334 438.293z" fill="rgb(255,171,1)"/><path d="M661.176 438.032C661.176 438.511 660.786 438.899 660.31 438.899H651.625C651.146 438.899 650.758 438.511 650.758 438.032L651.625 431.086C651.625 430.605 652.016 430.219 652.492 430.219H659.44C659.919 430.219 660.31 430.605 660.31 431.086L661.176 438.032z" fill="rgb(254,193,47)"/><path d="M690.114 454.526H622.398V496.779H690.114V454.526z" fill="rgb(43,131,253)"/><path d="M690.114 454.526H622.398V462.051H690.114V454.526z" fill="rgb(0,99,203)"/><path d="M659.063 454.526H653.447V496.779H659.063V454.526z" fill="rgb(254,193,47)"/><path d="M690.402 470.935V465.319H622.107V470.935H690.402z" fill="rgb(254,193,47)"/><path d="M659.063 454.526H653.447V462.051H659.063V454.526z" fill="rgb(255,171,1)"/><path d="M693.007 457.999H619.503V438.32H693.007V457.999z" fill="rgb(43,131,253)"/><path d="M659.44 457.999H653.074V437.742H659.44V457.999z" fill="rgb(254,193,47)"/></g><path d="M377.304 495.606C377.304 499.763 373.932 503.128 369.776 503.128 365.625 503.128 362.254 499.763 362.254 495.606 362.254 491.455 365.625 488.085 369.776 488.085 373.932 488.085 377.304 491.455 377.304 495.606z" fill="rgb(72,79,89)"/><path d="M374.292 495.606C374.292 498.098 372.274 500.123 369.776 500.123 367.284 500.123 365.259 498.098 365.259 495.606 365.259 493.115 367.284 491.089 369.776 491.089 372.274 491.089 374.292 493.115 374.292 495.606z" fill="rgb(183,190,192)"/><path d="M373.793 495.606C373.793 497.824 371.994 499.617 369.776 499.617 367.564 499.617 365.765 497.824 365.765 495.606 365.765 493.394 367.564 491.595 369.776 491.595 371.994 491.595 373.793 493.394 373.793 495.606z" fill="rgb(205,213,215)"/><path d="M371.481 493.893C371.454 496.258 370.136 496.765 368.537 495.026L362.587 488.524C360.995 486.778 361.621 485.346 363.986 485.346H367.277C369.643 485.346 371.554 487.285 371.527 489.65L371.481 493.893z" fill="rgb(205,213,215)"/><path d="M363.127 489.11C363.387 489.057 363.666 489.03 363.986 489.03H367.277C369.509 489.03 371.322 490.756 371.494 492.941L371.527 489.65C371.554 487.285 369.643 485.346 367.277 485.346H363.986C361.621 485.346 360.995 486.778 362.587 488.524L363.127 489.11z" fill="rgb(183,190,192)"/><path d="M343.867 460.229C342.821 460.229 341.908 459.457 341.768 458.391L336.519 418.844C336.366 417.685 337.178 416.619 338.338 416.46 339.49 416.313 340.563 417.125 340.716 418.285L345.965 457.832C346.126 458.991 345.306 460.057 344.147 460.21 344.054 460.223 343.96 460.229 343.867 460.229z" fill="rgb(205,213,215)"/><path d="M354.313 460.229C353.207 460.229 352.274 459.37 352.201 458.251L349.69 420.51C349.61 419.344 350.489 418.332 351.662 418.258 352.821 418.179 353.833 419.064 353.914 420.23L356.425 457.971C356.505 459.137 355.619 460.15 354.46 460.223L354.313 460.229z" fill="rgb(205,213,215)"/><path d="M364.766 460.229H364.745C363.58 460.223 362.634 459.271 362.641 458.098L362.861 422.163C362.867 420.996 363.82 420.057 364.986 420.057H365C366.165 420.064 367.104 421.017 367.098 422.19L366.878 458.125C366.878 459.29 365.925 460.229 364.766 460.229z" fill="rgb(205,213,215)"/><path d="M375.212 460.229C375.152 460.229 375.086 460.229 375.026 460.223 373.859 460.123 372.993 459.091 373.1 457.925L376.051 423.794C376.151 422.629 377.184 421.763 378.343 421.87 379.516 421.969 380.375 422.995 380.275 424.161L377.318 458.291C377.224 459.397 376.298 460.229 375.212 460.229z" fill="rgb(205,213,215)"/><path d="M340.35 186.656v0H335.107V169.415H340.35V186.656z" fill="rgb(22,63,89)"/><path d="M340.35 231.912v0H335.107V202.824H340.35V231.912z" fill="rgb(22,63,89)"/><path d="M340.35 266.402v0H335.107V238.654H340.35V266.402z" fill="rgb(22,63,89)"/><path d="M527.833 484.367C527.833 499.776 515.222 512.388 499.813 512.388H365.105C349.696 512.388 337.085 499.776 337.085 484.367V146.337C337.085 130.927 349.696 118.316 365.105 118.316H499.813C515.222 118.316 527.833 130.927 527.833 146.337V484.367z" fill="rgb(22,63,89)"/><path d="M365.105 508.438C351.835 508.438 341.036 497.632 341.036 484.367V146.337C341.036 133.066 351.835 122.266 365.105 122.266H499.813C513.085 122.266 523.876 133.066 523.876 146.337V484.367C523.876 497.632 513.085 508.438 499.813 508.438H365.105z" fill="rgb(25,72,102)"/><path d="M515.442 463.887H349.476V168.062H515.442V463.887z" fill="rgb(233,246,255)"/><path d="M355.865 333.596v-89H508.501v89H355.865z" fill="rgb(43,131,253)"/><path d="M355.865 423.702V334.828H508.501V423.702H355.865z" fill="rgb(255,255,255)"/><path d="M457.889 353.11h-87.56V347.267h87.56V353.11z" fill="rgb(125,194,245)"/><path d="M470.213 364.175H370.329V359.792H470.213V364.175z" fill="rgb(172,212,248)"/><path d="M457.122 374.428H369.915V370.037h87.207V374.428z" fill="rgb(172,212,248)"/><path d="M425.997 402.929H368.909V387.326H425.997V402.929z" fill="rgb(255,72,28)"/><path d="M413.086 397.312H381.827V392.929H413.086V397.312z" fill="rgb(255,255,255)"/><path d="M295.64 217.942V244.056C295.64 251.052 303.961 256.715 314.213 256.715 324.467 256.715 332.775 251.052 332.775 244.056V217.942H295.64z" fill="rgb(255,72,28)"/><path d="M332.775 217.942V244.056C332.775 251.052 341.089 256.715 351.348 256.715 361.614 256.715 369.929 251.052 369.929 244.056V217.942H332.775z" fill="rgb(255,255,255)"/><path d="M369.929 217.942V244.056C369.929 251.052 378.236 256.715 388.49 256.715 398.756 256.715 407.064 251.052 407.064 244.056V217.942H369.929z" fill="rgb(255,72,28)"/><path d="M407.064 217.942V244.056C407.064 251.052 415.378 256.715 425.637 256.715 435.884 256.715 444.204 251.052 444.204 244.056V217.942H407.064z" fill="rgb(255,255,255)"/><path d="M444.204 217.942V244.056C444.204 251.052 452.519 256.715 462.779 256.715 473.024 256.715 481.346 251.052 481.346 244.056V217.942H444.204z" fill="rgb(255,72,28)"/><path d="M481.346 217.942V244.056C481.346 251.052 489.66 256.715 499.914 256.715 510.18 256.715 518.48 251.052 518.48 244.056V217.942H481.346z" fill="rgb(255,255,255)"/><path d="M518.48 217.942V244.056C518.48 251.052 526.802 256.715 537.047 256.715 547.307 256.715 555.622 251.052 555.622 244.056V217.942H518.48z" fill="rgb(255,72,28)"/><path d="M349.23 176.516C331.355 190.347 313.508 204.164 295.64 217.994 308.018 217.994 320.403 217.994 332.775 217.994 346.185 204.164 359.576 190.347 372.966 176.516 365.059 176.516 357.137 176.516 349.23 176.516z" fill="rgb(222,63,24)"/><path d="M372.966 176.516C359.583 190.347 346.185 204.164 332.775 217.994 345.166 217.994 357.544 217.994 369.929 217.994 378.857 204.164 387.777 190.347 396.711 176.516 388.796 176.516 380.888 176.516 372.966 176.516z" fill="rgb(213,225,242)"/><path d="M396.711 176.516C387.777 190.347 378.857 204.164 369.929 217.994 382.301 217.994 394.686 217.994 407.064 217.994 411.527 204.164 415.997 190.347 420.461 176.516 412.56 176.516 404.626 176.516 396.711 176.516z" fill="rgb(222,63,24)"/><path d="M420.461 176.516C415.997 190.347 411.527 204.164 407.064 217.994 419.441 217.994 431.82 217.994 444.204 217.994 444.204 204.164 444.204 190.347 444.204 176.516 436.297 176.516 428.383 176.516 420.461 176.516z" fill="rgb(213,225,242)"/><path d="M444.204 176.516C444.204 190.347 444.204 204.164 444.204 217.994 456.583 217.994 468.954 217.994 481.346 217.994 476.882 204.164 472.418 190.347 467.942 176.516 460.033 176.516 452.119 176.516 444.204 176.516z" fill="rgb(222,63,24)"/><path d="M467.942 176.516C472.418 190.347 476.882 204.164 481.346 217.994 493.73 217.994 506.102 217.994 518.48 217.994 509.553 204.164 500.619 190.347 491.699 176.516 483.784 176.516 475.87 176.516 467.942 176.516z" fill="rgb(213,225,242)"/><path d="M491.699 176.516C500.619 190.347 509.553 204.164 518.48 217.994 530.872 217.994 543.25 217.994 555.622 217.994 542.231 204.164 528.833 190.347 515.436 176.516 507.522 176.516 499.62 176.516 491.699 176.516z" fill="rgb(222,63,24)"/><path d="M349.043 167.995V176.596H372.827V167.995H349.043z" fill="rgb(255,72,28)"/><path d="M372.827 167.995V176.596H396.617V167.995H372.827z" fill="rgb(255,255,255)"/><path d="M396.617 167.995V176.596H420.407V167.995H396.617z" fill="rgb(255,72,28)"/><path d="M420.407 167.995V176.596H444.204V167.995H420.407z" fill="rgb(255,255,255)"/><path d="M444.204 167.995V176.596H468.001V167.995H444.204z" fill="rgb(255,72,28)"/><path d="M468.001 167.995V176.596H491.798V167.995H468.001z" fill="rgb(255,255,255)"/><path d="M491.798 167.995V176.596H515.582V167.995H491.798z" fill="rgb(255,72,28)"/><path d="M494.943 365.967 481.499 356.747 468.042 365.967V337.48H481.499 494.943V365.967z" fill="rgb(243,170,6)"/><path d="M501.798 326.688C501.798 337.9 492.711 346.993 481.499 346.993 470.28 346.993 461.193 337.9 461.193 326.688 461.193 315.475 470.28 306.388 481.499 306.388 492.711 306.388 501.798 315.475 501.798 326.688z" fill="rgb(253,191,20)"/><path d="M481.499 314.575 485.363 319.299 491.465 319.372 490.179 325.341 493.924 330.158 488.461 332.876 487.029 338.806 481.499 336.227 475.963 338.806 474.53 332.876 469.067 330.158 472.811 325.341 471.533 319.372 477.629 319.299 481.499 314.575z" fill="rgb(255,255,255)"/><path d="M397.923 120.42 397.943 120.38 397.923 119.175H348.064V120.38 120.42L348.19 120.648C348.83 121.687 349.976 121.873 351.295 121.873H394.686C396.004 121.873 397.15 121.687 397.796 120.648L397.923 120.42z" fill="rgb(209,219,234)"/><path d="M385.905 120.621V120.654L386.032 120.834C386.225 121.107 386.471 121.307 386.758 121.453H394.339C395.604 121.453 396.711 121.3 397.33 120.454L397.45 120.267 397.47 120.24 397.457 119.648H385.905V120.621z" fill="rgb(182,194,201)"/><path d="M379.175 120.307H354.259V119.455H379.175V120.307z" fill="rgb(182,194,201)"/><path d="M486.016 422.169C480.4 423.581 470.046 428.618 467.882 437.225 464.624 450.15 471.133 469.13 460.834 487.692 457.542 493.607 517.761 501.562 517.761 501.562L529.38 436.246C529.38 436.246 514.869 422.063 511.898 421.109 505.749 419.131 497.242 419.344 486.016 422.169z" fill="rgb(222,63,24)"/><path d="M529.473 436.279C531.572 441.503 536.855 472.555 530.959 479.877 530.286 480.722 534.023 482.035 533.343 485.9 533.23 486.546 532.104 489.623 532.104 489.623L527.287 490.875 512.744 482.602 515.529 479.21 516.848 479.237C516.848 479.237 518.094 478.078 517.747 476.646 517.408 475.226 521.085 472.915 526.648 448.811 528.287 441.723 529.013 435.127 529.473 436.279z" fill="rgb(255,72,28)"/><path d="M523.85 478.404 519.547 477.451 517.807 477.179C517.801 478.358 516.848 479.237 516.848 479.237L520.185 479.344 524.09 480.183 528.82 482.874 523.85 478.404z" fill="rgb(236,182,13)"/><path d="M517.701 482.415C517.701 482.415 521.025 482.374 523.857 484.12 526.015 485.446 527.994 488.338 526.015 489.896 524.029 491.462 520.978 492.921 520.978 492.921 520.978 492.921 513.411 493.128 517.701 482.415z" fill="rgb(196,209,225)"/><path d="M526.009 490.01 523.983 489.577C523.983 489.577 517.008 488.943 516.015 489.484 515.016 490.036 511.818 492.195 511.818 492.195L511.159 492.801C511.159 492.801 512.711 493.767 514.816 492.301 516.921 490.829 517.094 491.962 517.094 491.962L516.741 493.82 516.775 496.192 516.448 497.191C516.448 497.191 516.149 497.737 516.381 497.938 517.042 498.511 517.701 498.237 517.701 498.237L519.826 494.533 520.406 498.563C520.406 498.563 520.693 499.11 521.358 499.25 521.978 499.383 521.985 499.217 521.985 499.217L522.465 498.197C522.511 498.404 522.624 498.69 522.891 498.897 523.41 499.31 524.15 499.257 524.15 499.257L523.95 495.013 524.823 497.172C524.823 497.172 525.129 497.697 525.775 497.858 526.482 498.017 526.668 498.071 526.668 498.071L526.009 490.01z" fill="rgb(228,238,243)"/><path d="M489.88 473.401C489.88 473.401 494.937 486.226 507.108 489.664 509.214 490.256 510.506 492.535 509.493 493.261 508.187 494.194 506.409 494.401 503.358 494.393 496.995 494.38 488.334 492.402 482.345 486.605 473.478 478.024 470.686 474.127 471.586 469.81 472.479 465.486 489.88 473.401 489.88 473.401z" fill="rgb(233,214,184)"/><path d="M469.607 432.902C467.035 437.139 465.543 443.941 465.556 453.668 465.583 461.203 472.079 473.534 473.072 477.325 473.238 477.957 473.637 480.676 473.637 480.676L480.839 487.738 495.29 477.951 490.892 471.209 489.587 471.349C489.587 471.349 488.761 467.632 488.974 466.179 489.2 464.734 484.976 445.307 482.891 432.855 481.686 425.674 472.165 428.705 469.607 432.902z" fill="rgb(255,72,28)"/><path d="M482.538 471.102 486.749 469.803 488.461 469.377C488.567 470.55 489.587 471.349 489.587 471.349L486.276 471.735 482.445 472.894 477.968 475.973 482.538 471.102z" fill="rgb(222,63,24)"/><path d="M506.182 489.623 513.537 487.611C513.537 487.611 515.622 490.403 515.229 491.095 514.829 491.795 515.229 495.926 515.229 495.926L511.665 498.964 508.767 497.998C508.767 497.998 508.568 496.731 509.553 496.612 510.546 496.486 508.887 495.766 508.367 495.466 507.841 495.173 503.584 492.975 506.182 489.623z" fill="rgb(233,214,184)"/><path d="M494.91 421.542C494.09 423.882 495.33 426.459 497.661 427.272L501.845 428.738C504.176 429.558 506.755 428.318 507.575 425.98L511.292 415.374C512.111 413.035 510.866 410.457 508.534 409.638L504.356 408.178C502.025 407.359 499.447 408.598 498.628 410.93L494.91 421.542z" fill="rgb(228,238,243)"/><path d="M513.124 430.863C512.698 432.409 511.099 433.314 509.553 432.889L496.962 429.418C495.409 428.998 494.51 427.399 494.937 425.846L500.073 407.193C500.499 405.647 502.091 404.741 503.643 405.167L516.235 408.632C517.781 409.065 518.687 410.657 518.267 412.209L513.124 430.863z" fill="rgb(233,214,184)"/><path d="M517.221 416.06C517.221 416.06 519.413 414.714 520.032 413.689 520.339 413.175 520.379 410.903 519.206 409.705 518.027 408.498 516.448 409.691 516.448 409.691 516.448 409.691 518.34 411.556 518.327 412.056 518.314 412.549 517.221 416.06 517.221 416.06z" fill="rgb(22,63,89)"/><path d="M496.476 415.234C496.476 415.234 496.549 407.532 497.482 405.533 498.4 403.529 499.04 402.136 501.672 402.616 505.603 403.322 505.429 404.155 507.614 403.502 509.806 402.849 513.93 400.963 515.162 400.997 517.215 401.064 520.053 402.536 519.173 406.179 518.527 408.871 520.026 409.991 519.953 410.077 519.713 410.364 518.926 410.477 517.541 410.75 513.557 411.537 511.358 411.303 508.873 409.871 506.382 408.425 501.805 405.533 500.679 407.352 499.546 409.178 498.114 415.307 497.748 415.707 497.381 416.113 496.848 415.713 496.476 415.234z" fill="rgb(25,72,102)"/><path d="M498.9 421.929C498.76 422.435 498.221 422.742 497.708 422.596L494.983 421.849C494.47 421.709 494.171 421.176 494.31 420.663L495.683 415.686C495.823 415.174 496.355 414.868 496.875 415.007L499.594 415.76C500.113 415.9 500.412 416.433 500.273 416.953L498.9 421.929z" fill="rgb(233,214,184)"/><path d="M515.136 426.393C514.99 426.912 514.45 427.219 513.937 427.073L511.219 426.327C510.705 426.18 510.4 425.647 510.546 425.134L511.912 420.157C512.052 419.645 512.585 419.338 513.104 419.484L515.829 420.23C516.342 420.371 516.642 420.91 516.502 421.423L515.136 426.393z" fill="rgb(233,214,184)"/><path d="M497.229 417.199C497.229 417.199 495.209 424.547 494.531 427 493.917 429.211 493.464 434.314 505.975 437.758 513.384 439.797 514.603 434.288 515.103 432.496 515.476 431.137 515.056 426.632 514.49 425.633L513.656 428.665C513.656 428.665 512.931 425.287 509.407 424.315 503.731 422.755 501.525 425.72 499.04 424.98 497.128 424.401 496.542 420.856 497.229 417.199z" fill="rgb(25,72,102)"/><path d="M505.749 428.491 509.633 429.564C510.147 429.704 510.68 429.405 510.826 428.884L510.973 428.351 505.222 426.759 505.069 427.306C504.929 427.826 505.236 428.351 505.749 428.491z" fill="rgb(233,214,184)"/><path d="M567.187 503.021C565.401 507.978 533.969 526.225 523.444 525.139L491.706 526.651C464.717 523.353 451.939 481.422 451.939 481.422 453.019 470.889 479.607 486.153 489.087 490.882 504.097 498.371 513.583 498.751 513.583 498.751 523.63 499.783 535.269 492.035 547.941 491.762 561.864 491.469 570.018 495.206 567.187 503.021z" fill="rgb(40,39,35)"/><path d="M498.147 497.984 498.121 497.938V496.618L552.751 495.626 552.77 496.945V496.992L552.637 497.231C551.958 498.391 550.699 498.624 549.259 498.651L501.719 499.51C500.273 499.543 499.013 499.357 498.287 498.224L498.147 497.984z" fill="rgb(182,194,201)"/><path d="M511.312 497.964V497.998L511.186 498.204C510.973 498.504 510.705 498.724 510.4 498.891L502.085 499.037C500.699 499.063 499.493 498.924 498.794 498.011L498.661 497.812 498.634 497.778V497.132L511.292 496.898 511.312 497.964z" fill="rgb(216,229,237)"/><path d="M518.68 497.484 545.981 496.984 545.962 496.053 518.66 496.551 518.68 497.484z" fill="rgb(135,155,166)"/><path d="M511.585 496.332 518.181 469.351C518.353 468.644 519.066 468.051 519.779 468.038L558.107 467.345C558.813 467.331 559.246 467.891 559.073 468.604L552.477 495.579 511.585 496.332z" fill="rgb(176,191,222)"/><path d="M486.856 533.64C490.639 534.286 493.517 529.895 493.517 529.895L503.284 522.208 501.219 517.011 482.199 525.559C482.199 525.559 483.071 532.994 486.856 533.64z" fill="rgb(233,214,184)"/><path d="M493.531 529.602C493.531 529.602 493.544 530.056 492.812 532.055 492.085 534.067 491.193 534.759 490.246 535.039 486.603 536.118 483.978 535.572 475.203 537.264 466.436 538.95 463.804 537.677 461.24 533.64 458.668 529.596 461.333 526.419 465.61 526.091 471.805 525.626 475.25 526.331 478.474 525.846 481.852 525.332 482.065 524.573 484.037 523.353 485.896 522.221 487.602 529.004 485.85 530.583 484.304 531.961 492.218 532.174 493.531 529.602z" fill="rgb(43,131,253)"/><path d="M491.652 533.5C488.008 534.573 485.377 534.04 476.609 535.725 467.842 537.417 465.211 536.138 462.639 532.095 461.453 530.229 461.393 528.563 462.093 527.258 460.161 528.584 459.508 530.909 461.24 533.64 463.804 537.677 466.436 538.95 475.203 537.264 483.978 535.572 486.603 536.118 490.246 535.039 490.98 534.826 491.672 534.353 492.285 533.233 492.078 533.347 491.871 533.44 491.652 533.5z" fill="rgb(255,255,255)"/><path d="M493.517 529.723C493.531 529.642 493.531 529.602 493.531 529.602L493.444 529.736 493.517 529.723z" fill="rgb(233,214,184)"/><path d="M474.57 532.76C474.291 532.86 474.038 532.334 473.957 531.588 473.785 530.069 473.451 528.563 472.938 527.071 472.685 526.331 472.692 525.672 472.999 525.593 473.311 525.512 473.804 526.039 474.044 526.758 474.53 528.237 474.85 529.736 475.003 531.229 475.077 531.968 474.856 532.647 474.57 532.76z" fill="rgb(255,255,255)"/><path d="M477.295 532.268C476.989 532.327 476.722 531.808 476.642 531.108 476.476 529.696 476.143 528.27 475.643 526.858 475.396 526.158 475.41 525.559 475.736 525.519 476.063 525.478 476.569 525.999 476.803 526.698 477.288 528.097 477.595 529.503 477.748 530.902 477.822 531.595 477.589 532.201 477.295 532.268z" fill="rgb(255,255,255)"/><path d="M480.147 532.141C479.834 532.181 479.528 531.628 479.421 530.909 479.187 529.449 478.794 527.984 478.228 526.518 477.955 525.798 477.949 525.192 478.294 525.179 478.627 525.16 479.168 525.725 479.434 526.438 479.98 527.891 480.354 529.336 480.566 530.775 480.666 531.495 480.453 532.101 480.147 532.141z" fill="rgb(255,255,255)"/><path d="M487.521 521.088C487.521 521.088 554.656 493.494 558.487 493.447 571.451 493.328 568.479 506.452 561.911 512.621 554.162 519.903 495.223 533.233 495.223 533.233L487.521 521.088z" fill="rgb(50,59,49)"/><path d="M514.15 525.879 495.823 508.503 503.637 500.769 523.644 521.801 514.15 525.879z" fill="rgb(233,214,184)"/><path d="M517.947 512.221C517.947 512.221 471.313 469.47 468.162 468.197 457.522 463.874 450.927 475.633 451.3 479.697 451.787 484.959 499.167 527.77 499.167 527.77L517.947 512.221z" fill="rgb(60,70,59)"/><path d="M545.582 527.245C546.674 528.251 546.861 531.208 546.861 531.208 546.861 531.208 531.298 537.098 525.829 537.198 524.41 537.231 521.858 536.658 519.407 535.978 518.993 535.872 518.048 534.806 517.648 534.686 516.902 534.466 516.728 535.192 516.088 534.985 514.436 534.452 513.25 534.006 513.211 533.927 509.919 526.938 511.039 523.493 511.039 523.493 511.039 523.493 518.187 525.539 516.962 523.94 514.336 520.515 521.831 517.011 523.504 518.836 530.165 526.132 542.424 524.326 545.582 527.245z" fill="rgb(43,131,253)"/><path d="M546.448 528.69C541.665 530.589 531.618 534.519 529.613 534.659 521.425 535.239 515.695 532.327 511.872 530.616 512.205 531.614 512.638 532.714 513.211 533.927 513.25 534.006 514.436 534.452 516.088 534.985 516.728 535.192 516.902 534.466 517.648 534.686 518.048 534.806 518.993 535.872 519.407 535.978 521.858 536.658 524.41 537.231 525.829 537.198 531.298 537.098 546.861 531.208 546.861 531.208 546.861 531.208 546.82 529.863 546.448 528.69z" fill="rgb(255,255,255)"/><path d="M535.442 524.16C535.596 524.433 534.983 524.746 534.109 524.932 532.344 525.292 530.579 525.819 528.853 526.525 528.007 526.871 527.228 526.951 527.108 526.651 527.001 526.352 527.58 525.792 528.42 525.459 530.125 524.779 531.871 524.267 533.617 523.926 534.489 523.753 535.303 523.893 535.442 524.16z" fill="rgb(255,255,255)"/><path d="M531.957 522.927C532.091 523.201 531.491 523.594 530.645 523.834 528.92 524.34 527.221 525.006 525.562 525.838 524.75 526.245 524.003 526.371 523.89 526.065 523.79 525.752 524.349 525.126 525.156 524.733 526.808 523.926 528.487 523.28 530.192 522.801 531.032 522.567 531.825 522.654 531.957 522.927z" fill="rgb(255,255,255)"/><path d="M528.594 521.841C528.72 522.128 528.14 522.574 527.314 522.887 525.642 523.527 524.003 524.32 522.418 525.273 521.632 525.746 520.919 525.919 520.812 525.593 520.712 525.273 521.245 524.587 522.025 524.127 523.61 523.194 525.236 522.421 526.888 521.814 527.701 521.515 528.473 521.548 528.594 521.841z" fill="rgb(255,255,255)"/><path d="M236.676 185.696C236.676 190.72 232.598 194.804 227.562 194.804 222.526 194.804 218.442 190.72 218.442 185.696 218.442 180.654 222.526 176.57 227.562 176.57 232.598 176.57 236.676 180.654 236.676 185.696z" fill="rgb(243,243,243)"/><path d="M478.089 57.572C478.089 68.777 469.004 77.858 457.8 77.858 446.597 77.858 437.512 68.777 437.512 57.572 437.512 46.364 446.597 37.283 457.8 37.283 469.004 37.283 478.089 46.364 478.089 57.572z" fill="rgb(233,246,255)"/><path d="M471.098 66.57C465.13 66.57 460.274 71.421 460.274 77.39 460.274 83.357 465.13 88.213 471.098 88.213 477.066 88.213 481.918 83.357 481.918 77.39 481.918 71.421 477.066 66.57 471.098 66.57zM471.098 90.378C463.936 90.378 458.114 84.552 458.114 77.39 458.114 70.231 463.936 64.405 471.098 64.405 478.257 64.405 484.087 70.231 484.087 77.39 484.087 84.552 478.257 90.378 471.098 90.378z" fill="rgb(141,207,255)"/><path d="M471.098 68.029C467.746 69.964 465.686 73.503 465.686 77.39 465.686 81.281 467.746 84.815 471.098 86.754 474.45 84.815 476.509 81.281 476.509 77.39 476.509 73.503 474.45 69.964 471.098 68.029zM471.098 89.2 470.605 88.949C466.238 86.713 463.522 82.287 463.522 77.39 463.522 72.496 466.238 68.07 470.605 65.835L471.098 65.584 471.591 65.835C475.958 68.07 478.675 72.496 478.675 77.39 478.675 82.287 475.958 86.713 471.591 88.949L471.098 89.2z" fill="rgb(141,207,255)"/><path d="M471.098 73.064C467.784 73.064 464.629 71.806 462.202 69.52L463.685 67.945C465.707 69.85 468.34 70.895 471.098 70.895 473.857 70.895 476.489 69.85 478.508 67.945L479.996 69.52C477.571 71.806 474.412 73.064 471.098 73.064z" fill="rgb(141,207,255)"/><path d="M478.508 86.835C476.489 84.933 473.857 83.883 471.098 83.883 468.34 83.883 465.707 84.933 463.685 86.835L462.202 85.263C464.629 82.977 467.784 81.719 471.098 81.719 474.412 81.719 477.571 82.977 479.996 85.263L478.508 86.835z" fill="rgb(141,207,255)"/><path d="M472.181 89.296H470.017V65.488H472.181V89.296z" fill="rgb(141,207,255)"/><path d="M483.004 78.472H459.193V76.307H483.004V78.472z" fill="rgb(141,207,255)"/><path d="M401.546 54.072C401.546 72.161 386.882 86.83 368.788 86.83 350.699 86.83 336.036 72.161 336.036 54.072 336.036 35.978 350.699 21.314 368.788 21.314 386.882 21.314 401.546 35.978 401.546 54.072z" fill="rgb(0,99,203)"/><path d="M356.201 68.868 383.787 41.283 381.779 39.275 354.193 66.861" fill="rgb(255,255,255)"/><path d="M366.237 45.794H364.814C364.814 46.93 364.357 47.947 363.616 48.692 362.865 49.438 361.853 49.895 360.718 49.895 359.578 49.895 358.561 49.438 357.815 48.692 357.075 47.947 356.617 46.93 356.617 45.794 356.617 44.661 357.075 43.643 357.815 42.898 358.561 42.151 359.578 41.699 360.718 41.693 361.853 41.699 362.87 42.151 363.616 42.898 364.362 43.643 364.814 44.661 364.814 45.794H366.237 367.653C367.653 43.882 366.87 42.14 365.619 40.889 364.367 39.637 362.625 38.86 360.718 38.86 358.806 38.86 357.064 39.637 355.813 40.889 354.556 42.14 353.778 43.882 353.778 45.794 353.778 47.707 354.556 49.448 355.813 50.7 357.059 51.952 358.806 52.735 360.718 52.73 362.625 52.73 364.367 51.952 365.619 50.7 366.87 49.448 367.653 47.707 367.653 45.794H366.237z" fill="rgb(255,255,255)"/><path d="M381.407 62.349H379.989C379.984 63.484 379.531 64.501 378.786 65.246 378.04 65.988 377.028 66.446 375.888 66.446 374.754 66.446 373.737 65.988 372.99 65.246 372.244 64.501 371.792 63.484 371.787 62.349 371.792 61.21 372.244 60.198 372.99 59.452 373.737 58.706 374.754 58.247 375.888 58.247 377.028 58.247 378.04 58.706 378.786 59.446 379.531 60.198 379.984 61.21 379.989 62.349H381.407 382.823C382.823 60.437 382.045 58.695 380.794 57.444 379.542 56.192 377.8 55.414 375.888 55.414 373.976 55.414 372.234 56.192 370.982 57.444 369.73 58.695 368.954 60.437 368.954 62.349 368.954 64.257 369.73 66.003 370.982 67.25 372.234 68.502 373.982 69.285 375.888 69.279 377.8 69.285 379.542 68.502 380.794 67.25 382.045 65.998 382.823 64.257 382.823 62.349H381.407z" fill="rgb(255,255,255)"/><path d="M573.357 290.699C570.812 290.699 568.746 288.633 568.746 286.081 568.746 283.536 570.812 281.472 573.357 281.472 575.902 281.472 577.973 283.536 577.973 286.081 577.973 288.633 575.902 290.699 573.357 290.699zM573.363 269.62C564.749 269.62 557.768 276.608 557.768 285.215 557.768 293.83 573.363 317.44 573.363 317.44 573.363 317.44 588.952 293.83 588.952 285.215 588.952 276.608 581.971 269.62 573.363 269.62z" fill="rgb(125,194,245)"/><g><path d="M621.014 120.424C621.014 138.284 606.53 152.768 588.67 152.768 570.802 152.768 556.324 138.284 556.324 120.424 556.324 102.562 570.802 88.078 588.67 88.078 606.53 88.078 621.014 102.562 621.014 120.424z" fill="rgb(253,191,20)"/><path d="M588.67 140.263C577.73 140.263 568.83 131.362 568.83 120.424 568.83 109.484 577.73 100.584 588.67 100.584 599.608 100.584 608.509 109.484 608.509 120.424 608.509 121.916 608.343 123.402 608.016 124.841L604.652 124.074C604.918 122.882 605.058 121.662 605.058 120.424 605.058 111.39 597.703 104.035 588.67 104.035 579.629 104.035 572.274 111.39 572.274 120.424 572.274 129.463 579.629 136.812 588.67 136.812 592.286 136.812 595.724 135.66 598.595 133.468 599.382 132.861 600.122 132.196 600.781 131.462L603.332 133.788C602.533 134.667 601.64 135.48 600.687 136.206 597.209 138.864 593.053 140.263 588.67 140.263z" fill="rgb(255,255,255)"/><path d="M588.67 114.387C585.338 114.387 582.626 117.099 582.626 120.424 582.626 123.754 585.338 126.466 588.67 126.466 591.993 126.466 594.705 123.754 594.705 120.424 594.705 117.099 591.993 114.387 588.67 114.387zM588.67 129.917C583.433 129.917 579.182 125.653 579.182 120.424 579.182 115.194 583.433 110.936 588.67 110.936 593.899 110.936 598.156 115.194 598.156 120.424 598.156 125.653 593.899 129.917 588.67 129.917z" fill="rgb(255,255,255)"/><path d="M601.293 129.923C597.437 129.923 594.298 126.813 594.298 122.995H597.75C597.75 124.914 599.342 126.472 601.293 126.472 603.246 126.472 604.838 124.914 604.838 122.995H608.289C608.289 126.813 605.151 129.923 601.293 129.923z" fill="rgb(255,255,255)"/></g><path d="M275.974 156.236C275.974 163.385 270.179 169.18 263.029 169.18 255.888 169.18 250.092 163.385 250.092 156.236 250.092 149.094 255.888 143.298 263.029 143.298 270.179 143.298 275.974 149.094 275.974 156.236z" fill="rgb(255,61,13)"/><path d="M268.665 156.236 264.436 158.688 260.199 161.133V156.236 151.352L264.436 153.797 268.665 156.236z" fill="rgb(255,255,255)"/><path d="M450.117 49.818C450.117 51.996 448.348 53.765 446.164 53.765 443.985 53.765 442.212 51.996 442.212 49.818 442.212 47.634 443.985 45.866 446.164 45.866 448.348 45.866 450.117 47.634 450.117 49.818z" fill="rgb(254,206,64)"/><path d="M469.719 38.47C469.719 41.463 467.292 43.895 464.294 43.895 461.299 43.895 458.871 41.463 458.871 38.47 458.871 35.47 461.299 33.042 464.294 33.042 467.292 33.042 469.719 35.47 469.719 38.47z" fill="rgb(141,207,255)"/><path d="M325.299 104.578C327.518 104.578 329.316 106.377 329.316 108.596V111.274H338.69L329.316 120.648V134.191C329.316 136.41 327.518 138.209 325.299 138.209H284.928C282.709 138.209 280.91 136.41 280.91 134.191V108.596C280.91 106.377 282.709 104.578 284.928 104.578H325.299z" fill="rgb(78,153,255)"/><path d="M299.218 126.437H296.959L295.021 121.62C294.588 120.547 294.021 118.929 293.722 117.803H293.681C293.762 119.082 293.854 121.034 293.854 123.592V126.437H291.689V113.752H293.948L295.906 118.722C296.299 119.701 296.906 121.334 297.259 122.426H297.299C297.219 121.093 297.052 118.895 297.052 116.557V113.752H299.218V126.437z" fill="rgb(255,255,255)"/><path d="M307.113 126.437H301.396V113.752H306.906V115.897H303.861V118.815H306.739V120.867H303.861V124.291H307.113V126.437z" fill="rgb(255,255,255)"/><path d="M318.065 126.437H315.52L314.767 122.279C314.567 121.114 314.374 119.661 314.207 118.122H314.167C313.941 119.642 313.734 121.054 313.474 122.293L312.621 126.437H310.177L308.018 113.752H310.576L311.196 118.815C311.362 120.261 311.475 121.714 311.628 123.259H311.682C311.856 121.693 312.136 120.321 312.395 118.795L313.301 113.752H315.293L316.145 118.762C316.373 120.188 316.599 121.6 316.745 123.259H316.779C316.946 121.6 317.099 120.248 317.272 118.776L317.891 113.752H320.303L318.065 126.437z" fill="rgb(255,255,255)"/><g><path d="M602.686 180.235C599.828 180.235 597.51 182.554 597.51 185.411V188.862H585.431L597.51 200.935V231.993C597.51 234.852 599.828 237.169 602.686 237.169H652.718C655.577 237.169 657.895 234.852 657.895 231.993V185.411C657.895 182.554 655.577 180.235 652.718 180.235H602.686z" fill="rgb(255,61,13)"/><path d="M639.687 209.982H619.761L616.63 199.982H642.546L639.687 209.982zM616.85 222.64C615.644 222.64 614.665 221.66 614.665 220.455 614.665 219.249 615.644 218.27 616.85 218.27 618.062 218.27 619.042 219.249 619.042 220.455 619.042 221.66 618.062 222.64 616.85 222.64zM635.756 218.27C636.962 218.27 637.942 219.249 637.942 220.455 637.942 221.66 636.962 222.64 635.756 222.64 634.551 222.64 633.564 221.66 633.564 220.455 633.564 219.249 634.551 218.27 635.756 218.27zM615.317 196.725 613.858 192.354 607.916 190.654 607.023 193.779 611.321 195.006 616.869 211.647 615.903 215.118C613.358 215.564 611.42 217.783 611.42 220.455 611.42 223.452 613.858 225.891 616.85 225.891 619.281 225.891 621.32 224.278 622.013 222.08H630.594C631.293 224.278 633.325 225.891 635.756 225.891 638.755 225.891 641.186 223.452 641.186 220.455 641.186 217.456 638.755 215.018 635.756 215.018 633.325 215.018 631.293 216.63 630.594 218.829H622.013C621.553 217.377 620.52 216.191 619.155 215.545L619.801 213.226H640.02C641.519 213.226 642.718 212.147 642.852 210.714L646.849 196.725H615.317z" fill="rgb(255,255,255)"/></g><path d="M660.711 339.478 654.828 333.596V322.083H658.413V332.116L663.243 336.946 660.711 339.478z" fill="rgb(56,123,255)"/><path d="M649.459 332.829H629.766V329.245H649.459V332.829z" fill="rgb(56,123,255)"/><path d="M640.885 329.399C640.638 330.497 640.505 331.65 640.505 332.829 640.505 333.435 640.546 334.029 640.611 334.621H644.229C644.149 334.035 644.089 333.435 644.089 332.829 644.089 331.637 644.262 330.491 644.576 329.399H640.885z" fill="rgb(56,123,255)"/><path d="M656.62 316.713C650.252 316.713 644.749 320.438 642.138 325.814H646.241C648.493 322.483 652.31 320.298 656.62 320.298 663.529 320.298 669.152 325.914 669.152 332.829 669.152 339.738 663.529 345.36 656.62 345.36 651.631 345.36 647.334 342.423 645.315 338.199H641.445C643.663 344.448 649.619 348.945 656.62 348.945 665.508 348.945 672.736 341.717 672.736 332.829 672.736 323.942 665.508 316.713 656.62 316.713z" fill="rgb(56,123,255)"/><path d="M653.037 341.783H635.136V338.199H653.037V341.783z" fill="rgb(56,123,255)"/><path d="M638.713 323.876H633.343V320.298H638.713V323.876z" fill="rgb(56,123,255)"/><g><path d="M179.639 369.36 185.062 361.131 194.415 361.317 191.984 369.546 188.427 375.902 179.639 369.36z" fill="rgb(233,214,184)"/><path d="M202.05 351.378C201.937 353.324 200.264 354.809 198.319 354.689L185.002 353.89C183.057 353.77 181.578 352.098 181.691 350.152 181.811 348.207 183.483 346.721 185.435 346.841L198.739 347.64C200.684 347.761 202.171 349.432 202.05 351.378z" fill="rgb(22,63,89)"/><path d="M199.239 357.341C199.026 360.938 195.935 363.676 192.337 363.463L185.395 363.044C181.798 362.823 179.06 359.732 179.279 356.141 179.499 352.544 182.584 349.8 186.181 350.019L193.13 350.438C196.714 350.652 199.459 353.743 199.239 357.341z" fill="rgb(22,63,89)"/><path d="M203.842 368.08 205.068 347.727C205.262 344.482 202.437 347.567 199.193 347.374L196.068 347.181C192.823 346.987 190.031 349.459 189.839 352.697L188.973 367.187 203.842 368.08z" fill="rgb(233,214,184)"/><path d="M192.158 357.4C192.07 358.826 190.851 359.912 189.425 359.826 188 359.738 186.913 358.52 187.001 357.088 187.087 355.662 188.306 354.583 189.738 354.669 191.158 354.749 192.244 355.975 192.158 357.4z" fill="rgb(233,214,184)"/><path d="M202.53 361.597C202.477 362.424 203.083 363.137 203.882 363.183L205.082 363.257C205.887 363.303 206.567 362.67 206.621 361.844 206.621 361.844 204.449 353.963 203.649 353.91 203.649 353.91 202.949 354.543 202.903 355.369L202.53 361.597z" fill="rgb(233,214,184)"/><path d="M195.688 366.474C189.818 366.121 189.312 364.282 189.266 362.21 189.266 362.21 187.387 367.273 187.294 368.933L187.181 370.785C186.961 374.369 190.472 377.487 195.008 377.76L203.229 378.26 203.775 369.132 203.909 366.968 195.688 366.474z" fill="rgb(22,63,89)"/><path d="M204.135 363.19 199.438 362.904C197.28 362.77 195.422 364.422 195.288 366.587 195.268 366.928 195.308 367.254 195.368 367.567L203.842 368.08 204.135 363.19z" fill="rgb(22,63,89)"/><path d="M197.82 366.934 197.746 368.24C197.72 368.599 197.999 368.906 198.353 368.933L202.163 369.159C202.516 369.18 202.836 368.906 202.857 368.546L202.936 367.241 197.82 366.934z" fill="rgb(233,214,184)"/><path d="M203.263 343.99 191.217 343.263C189.918 343.183 188.806 344.17 188.726 345.469L188.44 350.166 202.836 351.032 203.263 343.99z" fill="rgb(22,63,89)"/><path d="M210.511 347.941C210.392 349.899 208.712 351.391 206.753 351.278L198.599 350.785C196.634 350.672 195.148 348.986 195.261 347.027 195.381 345.069 197.06 343.57 199.026 343.69L207.18 344.183C209.133 344.302 210.631 345.981 210.511 347.941z" fill="rgb(22,63,89)"/><path d="M193.203 348.753 189.952 348.553 189.433 357.121 192.683 357.321 193.203 348.753z" fill="rgb(22,63,89)"/><path d="M200.764 345.509 191.184 344.936 190.571 355.016 200.159 355.595 200.764 345.509z" fill="rgb(22,63,89)"/><path d="M192.804 355.282C192.976 352.611 195.268 350.572 197.947 350.732L200.452 350.879C203.129 351.038 204.428 353.303 204.269 355.975 204.102 358.653 201.803 360.692 199.126 360.532L197.361 360.426C194.682 360.265 192.643 357.96 192.804 355.282z" fill="rgb(233,214,184)"/><path d="M221.79 416.847C222.749 417.04 226.74 419.039 226.74 419.039 226.74 419.039 226.547 421.244 226.467 421.877 226.393 422.509 225.221 420.631 224.688 422.57 224.149 424.508 225.014 426.427 225.014 426.427L228.406 428.653 230.311 428.885 231.903 427.906 232.229 424.282 231.617 418.119 225.268 413.449 221.29 414.102 221.79 416.847z" fill="rgb(233,214,184)"/><path d="M224.381 410.132 231.39 415.028C231.39 415.028 232.942 417.486 234.128 419.518 235.32 421.551 235.647 422.916 235.647 422.916 235.647 422.916 235.028 426.733 234.341 427.446 233.649 428.159 231.823 427.293 231.823 427.293L228.119 427.599C228.119 427.599 226.813 427.133 227.913 425.907 229.005 424.682 231.537 424.987 231.537 424.987 231.537 424.987 231.443 422.976 231.503 422.19 231.556 421.397 228.565 417.406 228.565 417.406L222.902 414.522 224.381 410.132z" fill="rgb(233,214,184)"/><path d="M204.576 394.849 225.447 408.812 221.896 417.973 206.507 415.101 204.576 394.849z" fill="rgb(125,194,245)"/><path d="M149.972 537.824C149.972 537.824 145.323 539.183 143.397 539.35 141.785 539.49 139.001 538.291 137.634 537.579 136.382 536.925 134.396 535.812 133.737 534.227 132.805 531.982 131.379 524.793 131.379 524.793L130.033 525.613 128.034 520.623C128.034 520.623 131.059 514.181 133.144 513.987 135.942 513.734 141.498 521.495 141.498 521.495L141.992 530.297 144.936 534.894C144.936 534.894 147.927 535.646 148.726 535.959 149.493 536.259 149.972 537.824 149.972 537.824z" fill="rgb(8,24,50)"/><path d="M220.585 532.855 224.908 541.496 232.483 538.351 232.116 535.992 235.72 534.814 240.77 534.034 255.554 522.635C255.554 522.635 255.074 521.036 254.307 520.876 252.096 520.41 245.82 524.6 245.82 524.6L233.921 526.173 220.585 532.855z" fill="rgb(8,24,50)"/><path d="M184.036 464.475 178.14 479.211 143.957 524.6 132.525 513.895 161.045 469.785 165.762 433.235 184.036 464.475z" fill="rgb(22,63,89)"/><path d="M181.678 414.961C181.678 414.961 202.31 475.68 208.792 489.824 215.275 503.968 237.673 525.186 237.673 525.186L217.047 535.206C217.047 535.206 188.16 488.052 181.678 471.55 175.195 455.048 162.231 437.359 162.231 437.359 162.231 437.359 149.259 429.111 153.383 412.017 157.514 394.922 181.678 414.961 181.678 414.961z" fill="rgb(25,72,102)"/><path d="M196.035 379.852 186.934 427.473 152.824 409.705 175.795 367.413C175.795 367.413 183.569 359.259 196.035 379.852z" fill="rgb(115,169,255)"/><path d="M289.79 526.466C289.79 530.623 286.426 533.987 282.268 533.987 278.111 533.987 274.741 530.623 274.741 526.466 274.741 522.315 278.111 518.944 282.268 518.944 286.426 518.944 289.79 522.315 289.79 526.466z" fill="rgb(72,79,89)"/><path d="M286.779 526.466C286.779 528.957 284.76 530.983 282.268 530.983 279.771 530.983 277.751 528.957 277.751 526.466 277.751 523.975 279.771 521.949 282.268 521.949 284.76 521.949 286.779 523.975 286.779 526.466z" fill="rgb(183,190,192)"/><path d="M286.279 526.466C286.279 528.684 284.48 530.477 282.268 530.477 280.051 530.477 278.251 528.684 278.251 526.466 278.251 524.254 280.051 522.455 282.268 522.455 284.48 522.455 286.279 524.254 286.279 526.466z" fill="rgb(205,213,215)"/><path d="M283.974 524.753C283.947 527.118 282.621 527.625 281.023 525.886L275.08 519.384C273.481 517.638 274.114 516.206 276.473 516.206H279.764C282.128 516.206 284.041 518.145 284.014 520.51L283.974 524.753z" fill="rgb(205,213,215)"/><path d="M275.62 519.97C275.866 519.916 276.153 519.89 276.473 519.89H279.764C281.996 519.89 283.807 521.616 283.981 523.801L284.014 520.51C284.041 518.145 282.128 516.206 279.764 516.206H276.473C274.114 516.206 273.481 517.638 275.08 519.384L275.62 519.97z" fill="rgb(183,190,192)"/><path d="M355.172 469.451 259.224 458.891 259.684 454.681 355.631 465.234 355.172 469.451z" fill="rgb(205,213,215)"/><path d="M355.212 482.329 266.74 476.912 266.993 472.682 355.472 478.098 355.212 482.329z" fill="rgb(205,213,215)"/><path d="M349.156 517.885H349.136L276.726 517.172C274.98 517.172 272.455 516.952 270.889 515.014 268.951 512.622 269.578 508.784 270.45 504.72 271.829 498.285 272.669 494.155 272.669 494.155 272.861 493.162 273.748 492.442 274.76 492.455 288.251 492.576 314.626 492.735 317.904 492.463 319.07 492.363 320.096 493.228 320.189 494.401 320.282 495.567 319.424 496.593 318.251 496.686 314.44 496.999 284.2 496.773 276.473 496.706 276.099 498.505 275.453 501.616 274.593 505.613 274.254 507.179 273.361 511.336 274.181 512.349 274.488 512.728 275.4 512.935 276.745 512.935L349.175 513.648C350.342 513.654 351.287 514.614 351.274 515.786 351.268 516.946 350.315 517.885 349.156 517.885z" fill="rgb(183,190,192)"/><path d="M276.439 515.786C274.86 515.786 272.615 515.6 271.303 513.974 269.63 511.902 270.23 508.265 271.063 504.407 272.449 497.951 273.301 493.735 273.308 493.695 273.415 493.168 273.881 492.789 274.414 492.789 282.988 492.862 295.506 492.942 304.979 492.942 312.514 492.942 316.965 492.896 318.204 492.789H318.211C318.89 492.789 319.376 493.241 319.424 493.821 319.449 494.121 319.357 494.421 319.156 494.647 318.964 494.874 318.69 495.021 318.397 495.048 317.098 495.147 312.535 495.207 304.827 495.207 294.481 495.207 281.343 495.107 276.18 495.06L275.34 495.054 275.174 495.874C274.794 497.685 274.141 500.837 273.275 504.88 272.302 509.39 272.242 511.542 273.062 512.555 273.595 513.209 274.7 513.527 276.446 513.527L349.782 514.24C350.402 514.254 350.902 514.761 350.894 515.386 350.888 515.999 350.388 516.505 349.769 516.505L276.439 515.786z" fill="rgb(205,213,215)"/><path d="M282.529 491.089C281.616 491.089 280.77 490.497 280.496 489.577L267.039 444.622C266.706 443.495 267.338 442.316 268.465 441.977 269.584 441.644 270.763 442.283 271.103 443.403L284.554 488.365C284.893 489.485 284.254 490.67 283.134 491.003 282.935 491.064 282.728 491.089 282.529 491.089z" fill="rgb(205,213,215)"/><path d="M292.975 491.089C292.022 491.089 291.156 490.443 290.916 489.485L280.197 446.327C279.917 445.187 280.603 444.041 281.743 443.755 282.875 443.476 284.027 444.168 284.307 445.308L295.027 488.465C295.313 489.598 294.62 490.744 293.481 491.03 293.314 491.07 293.141 491.089 292.975 491.089z" fill="rgb(205,213,215)"/><path d="M303.421 491.089C302.422 491.089 301.535 490.39 301.342 489.371L293.354 448.025C293.134 446.873 293.887 445.76 295.033 445.534 296.186 445.321 297.298 446.067 297.518 447.22L305.5 488.571C305.719 489.717 304.973 490.83 303.827 491.056 303.687 491.077 303.554 491.089 303.421 491.089z" fill="rgb(205,213,215)"/><path d="M274.654 487.865H350.888L355.898 457.187 256.899 444.188 274.654 487.865zM352.687 492.102H273.221C272.362 492.102 271.583 491.576 271.263 490.777L249.012 436.04C249.012 436.04 247.939 433.988 242.895 432.309 236.5 430.178 228.879 426.72 228.552 426.574 227.493 426.094 227.02 424.835 227.506 423.769 227.986 422.703 229.245 422.237 230.311 422.716 230.384 422.756 238.059 426.227 244.228 428.285 251.189 430.611 252.722 433.869 252.962 434.494L255.06 439.678 358.617 453.268C359.182 453.343 359.696 453.648 360.035 454.108 360.382 454.568 360.522 455.148 360.428 455.707L354.779 490.324C354.612 491.349 353.726 492.102 352.687 492.102z" fill="rgb(205,213,215)"/><path d="M274.654 487.865H350.888L355.898 457.187 256.899 444.188 274.654 487.865zM352.687 492.102H273.221C272.362 492.102 271.583 491.576 271.263 490.777L249.012 436.04C249.012 436.04 247.939 433.988 242.895 432.309 236.5 430.178 228.879 426.72 228.552 426.574 227.493 426.094 227.02 424.835 227.506 423.769 227.986 422.703 229.245 422.237 230.311 422.716 230.384 422.756 238.059 426.227 244.228 428.285 251.189 430.611 252.722 433.869 252.962 434.494L255.06 439.678 358.617 453.268C359.182 453.343 359.696 453.648 360.035 454.108 360.382 454.568 360.522 455.148 360.428 455.707L354.779 490.324C354.612 491.349 353.726 492.102 352.687 492.102z" fill="rgb(205,213,215)"/><path d="M351.981 486.333 356.984 455.654 257.998 442.663 258.718 444.428 355.898 457.187 351.135 486.333H351.981z" fill="rgb(183,190,192)"/><path d="M353.78 490.57H274.321C273.455 490.57 272.682 490.044 272.355 489.251L250.11 434.508C250.11 434.508 249.031 432.457 243.982 430.778 237.593 428.645 229.971 425.194 229.651 425.048 228.766 424.642 228.299 423.703 228.438 422.783 228.046 422.996 227.706 423.322 227.506 423.769 227.02 424.835 227.493 426.094 228.552 426.574 228.879 426.72 236.5 430.178 242.895 432.309 247.939 433.988 249.012 436.04 249.012 436.04L271.263 490.777C271.583 491.576 272.362 492.102 273.221 492.102H352.687C353.726 492.102 354.612 491.349 354.779 490.324L354.786 490.277C354.479 490.45 354.146 490.57 353.78 490.57z" fill="rgb(183,190,192)"/><path d="M274.86 487.865H353.094L358.503 454.748 255.926 441.284 274.86 487.865zM274.321 489.477C273.988 489.477 273.694 489.278 273.574 488.971L250.99 433.415H250.757C249.978 432.536 248.192 431.01 244.394 429.751 238.039 427.633 230.51 424.215 230.197 424.069 229.991 423.982 229.851 423.816 229.772 423.615 229.698 423.416 229.705 423.196 229.798 423.003 229.925 422.716 230.211 422.53 230.531 422.53 230.644 422.53 230.757 422.55 230.864 422.603 230.937 422.636 238.685 426.147 244.907 428.226 251.443 430.397 252.703 433.316 252.822 433.649L255.234 439.565 359.535 453.262C359.749 453.289 359.941 453.402 360.075 453.575 360.209 453.755 360.261 453.975 360.228 454.188L354.572 488.798C354.512 489.191 354.179 489.477 353.78 489.477H274.321z" fill="rgb(229,232,236)"/><path d="M244.448 427.52 230.724 421.91C229.245 421.304 227.559 422.01 226.953 423.489 226.347 424.968 227.053 426.66 228.532 427.266L242.609 433.022 244.448 427.52z" fill="rgb(72,79,89)"/><path d="M279.304 473.941 289.104 474.541 285.34 459.385 274.593 458.199 279.304 473.941zM290.823 474.647 300.636 475.247 297.838 460.757 287.072 459.571 290.823 474.647zM302.328 475.354 312.148 475.954 310.316 462.129 299.544 460.943 302.328 475.354zM313.82 476.059 323.64 476.659 322.768 463.502 311.988 462.316 313.82 476.059zM325.292 476.76 335.113 477.366 335.192 464.868 324.42 463.682 325.292 476.76zM336.751 477.459 346.558 478.065 347.584 466.234 336.824 465.048 336.751 477.459zM293.394 489.231C293.015 489.231 292.688 488.971 292.601 488.605L289.517 476.207 279.796 475.614 283.561 488.172C283.688 488.605 283.441 489.065 283.008 489.198 282.935 489.218 282.855 489.224 282.775 489.224 282.415 489.224 282.095 488.985 281.988 488.645L278.058 475.507 268.145 474.901 268.245 473.269 277.558 473.834 272.822 458.005 260.556 456.653 260.736 455.027 272.309 456.3 268.311 442.949C268.185 442.51 268.432 442.056 268.865 441.923 268.944 441.903 269.024 441.889 269.105 441.889 269.457 441.889 269.783 442.13 269.883 442.476L274.081 456.499 284.92 457.686 281.703 444.741C281.649 444.528 281.682 444.308 281.795 444.122 281.909 443.935 282.088 443.802 282.302 443.748 282.368 443.735 282.435 443.721 282.502 443.721 282.875 443.721 283.201 443.982 283.295 444.348L286.652 457.879 297.511 459.078 295.094 446.534C295.006 446.094 295.293 445.66 295.74 445.574L295.899 445.561C296.286 445.561 296.625 445.84 296.698 446.227L299.217 459.258 310.089 460.457 308.484 448.319C308.424 447.872 308.737 447.46 309.183 447.4H309.204C309.71 447.4 310.049 447.705 310.109 448.106L311.768 460.644 322.655 461.836 321.875 450.097C321.861 449.884 321.928 449.671 322.074 449.512 322.221 449.345 322.421 449.244 322.634 449.232H322.641C323.121 449.232 323.481 449.564 323.507 449.991L324.313 462.022 335.199 463.216 335.272 451.877C335.272 451.43 335.638 451.057 336.092 451.057 336.545 451.07 336.911 451.436 336.911 451.89L336.838 463.402 347.724 464.601 348.669 453.648C348.71 453.228 349.062 452.896 349.476 452.896 349.775 452.916 349.976 453.023 350.116 453.195 350.256 453.356 350.321 453.569 350.302 453.788L349.356 464.774 355.612 465.467 355.432 467.1 349.209 466.407 348.19 478.159 355.505 478.612 355.405 480.244 348.05 479.798 347.304 488.478C347.264 488.898 346.91 489.224 346.491 489.224 346.199 489.205 345.998 489.104 345.858 488.938 345.718 488.764 345.651 488.558 345.672 488.339L346.418 479.698 336.744 479.104 336.684 488.412C336.684 488.864 336.318 489.224 335.865 489.224 335.412 489.224 335.046 488.858 335.046 488.404L335.105 479.005 325.405 478.405 326.066 488.352C326.079 488.571 326.012 488.785 325.865 488.944 325.719 489.111 325.519 489.211 325.305 489.224H325.299C324.819 489.224 324.46 488.891 324.426 488.465L323.753 478.305 314.041 477.713 315.44 488.298C315.499 488.745 315.185 489.165 314.74 489.224H314.727C314.206 489.224 313.867 488.918 313.82 488.519L312.368 477.606 302.648 477.013 304.82 488.252C304.9 488.698 304.607 489.124 304.166 489.211L304.007 489.224C303.62 489.224 303.281 488.952 303.208 488.565L300.956 476.906 291.236 476.314 294.187 488.212C294.301 488.651 294.034 489.098 293.594 489.205 293.527 489.224 293.461 489.231 293.394 489.231z" fill="rgb(229,232,236)"/><path d="M207.44 400.458C207.44 400.458 200.105 385.116 197.254 380.585 195.261 377.414 188.619 370.292 188.619 370.292 188.619 370.292 183.91 373.064 183.01 375.902 180.392 384.129 185.002 393.23 185.002 393.23L206.507 415.101 210.931 410.431 207.44 400.458z" fill="rgb(125,194,245)"/><path d="M183.01 363.563 180.392 365.995 192.73 375.341 192.917 371.604 183.01 363.563z" fill="rgb(125,194,245)"/><path d="M266.672 396.869 257.671 385.144H267.138V322.22H284.212V385.144H293.686L284.678 396.869 275.679 408.602 266.672 396.869z" fill="rgb(125,194,245)"/></g><path d="M229.484 250.859C231.043 250.859 232.302 252.152 232.302 253.758 232.302 255.356 231.043 256.655 229.484 256.648 227.925 256.655 226.66 255.356 226.66 253.758 226.66 252.152 227.925 250.859 229.484 250.859zM229.025 267.96 242.761 253.864 229.025 239.547H197.386V253.758 267.968L229.025 267.96z" fill="rgb(253,191,20)"/><path d="M223.301 216.323 225.574 221.046 230.65 221.798 226.979 225.476 227.845 230.666 223.301 228.214 218.759 230.666 219.624 225.476 215.954 221.798 221.03 221.046 223.301 216.323z" fill="rgb(255,255,255)"/></g></g></svg>